<mxfile host="app.diagrams.net" agent="Mozilla/5.0 (Windows NT 10.0; Win64; x64) AppleWebKit/537.36 (KHTML, like Gecko) Chrome/131.0.0.0 Safari/537.36" version="25.0.3">
  <diagram name="Page-1" id="vdhw-JKiXTZTB2Yz_r9F">
    <mxGraphModel dx="1134" dy="637" grid="1" gridSize="10" guides="1" tooltips="1" connect="1" arrows="1" fold="1" page="1" pageScale="1" pageWidth="850" pageHeight="1100" math="0" shadow="0">
      <root>
        <mxCell id="0" />
        <mxCell id="1" parent="0" />
        <mxCell id="lStGsnQYNJAQbXHhrpzu-38" value="" style="rounded=0;whiteSpace=wrap;html=1;fillColor=#d3e1f1;" vertex="1" parent="1">
          <mxGeometry x="210" y="40" width="165" height="80" as="geometry" />
        </mxCell>
        <mxCell id="lStGsnQYNJAQbXHhrpzu-8" value="" style="rounded=0;whiteSpace=wrap;html=1;fillColor=#90abce;strokeColor=#006EAF;fontColor=#ffffff;" vertex="1" parent="1">
          <mxGeometry x="460" y="70" width="440" height="200" as="geometry" />
        </mxCell>
        <mxCell id="lStGsnQYNJAQbXHhrpzu-4" value="" style="sketch=0;outlineConnect=0;fontColor=#232F3E;gradientColor=none;fillColor=#00188d;strokeColor=none;dashed=0;verticalLabelPosition=bottom;verticalAlign=top;align=center;html=1;fontSize=12;fontStyle=0;aspect=fixed;pointerEvents=1;shape=mxgraph.aws4.user;strokeWidth=4;" vertex="1" parent="1">
          <mxGeometry x="240" y="50" width="30" height="30" as="geometry" />
        </mxCell>
        <mxCell id="lStGsnQYNJAQbXHhrpzu-10" value="Logging" style="rounded=1;whiteSpace=wrap;html=1;" vertex="1" parent="1">
          <mxGeometry x="494.1" y="125" width="80" height="20" as="geometry" />
        </mxCell>
        <mxCell id="lStGsnQYNJAQbXHhrpzu-12" value="" style="sketch=0;aspect=fixed;pointerEvents=1;shadow=0;dashed=0;html=1;strokeColor=none;labelPosition=center;verticalLabelPosition=bottom;verticalAlign=top;align=center;fillColor=#00188D;shape=mxgraph.azure.user" vertex="1" parent="1">
          <mxGeometry x="520" y="90" width="28.2" height="30" as="geometry" />
        </mxCell>
        <mxCell id="lStGsnQYNJAQbXHhrpzu-15" value="" style="rounded=0;whiteSpace=wrap;html=1;fillColor=#d3e1f1;" vertex="1" parent="1">
          <mxGeometry x="670" y="90" width="210" height="90" as="geometry" />
        </mxCell>
        <mxCell id="lStGsnQYNJAQbXHhrpzu-16" value="" style="sketch=0;aspect=fixed;pointerEvents=1;shadow=0;dashed=0;html=1;strokeColor=none;labelPosition=center;verticalLabelPosition=bottom;verticalAlign=top;align=center;fillColor=#00188D;shape=mxgraph.azure.user" vertex="1" parent="1">
          <mxGeometry x="705.9" y="95" width="28.2" height="30" as="geometry" />
        </mxCell>
        <mxCell id="lStGsnQYNJAQbXHhrpzu-18" value="&lt;font style=&quot;font-size: 8px;&quot;&gt;Hosting application&lt;/font&gt;" style="rounded=1;whiteSpace=wrap;html=1;" vertex="1" parent="1">
          <mxGeometry x="548.2" y="180" width="80" height="20" as="geometry" />
        </mxCell>
        <mxCell id="lStGsnQYNJAQbXHhrpzu-19" value="Logging" style="rounded=1;whiteSpace=wrap;html=1;" vertex="1" parent="1">
          <mxGeometry x="680" y="130" width="80" height="20" as="geometry" />
        </mxCell>
        <mxCell id="lStGsnQYNJAQbXHhrpzu-20" value="&lt;font face=&quot;Times New Roman&quot;&gt;PT LAPI&amp;nbsp;&amp;nbsp;&lt;/font&gt;" style="text;html=1;align=center;verticalAlign=middle;whiteSpace=wrap;rounded=0;" vertex="1" parent="1">
          <mxGeometry x="810" y="95" width="60" height="30" as="geometry" />
        </mxCell>
        <mxCell id="lStGsnQYNJAQbXHhrpzu-23" value="" style="endArrow=classic;html=1;rounded=0;exitX=0.25;exitY=1;exitDx=0;exitDy=0;entryX=0.25;entryY=0;entryDx=0;entryDy=0;" edge="1" parent="1" source="lStGsnQYNJAQbXHhrpzu-10" target="lStGsnQYNJAQbXHhrpzu-18">
          <mxGeometry width="50" height="50" relative="1" as="geometry">
            <mxPoint x="470" y="170" as="sourcePoint" />
            <mxPoint x="520" y="120" as="targetPoint" />
          </mxGeometry>
        </mxCell>
        <mxCell id="lStGsnQYNJAQbXHhrpzu-24" value="Request" style="edgeLabel;html=1;align=center;verticalAlign=middle;resizable=0;points=[];labelBackgroundColor=none;fontColor=#ffffff;" vertex="1" connectable="0" parent="lStGsnQYNJAQbXHhrpzu-23">
          <mxGeometry x="-0.4074" y="-1" relative="1" as="geometry">
            <mxPoint x="-3" y="2" as="offset" />
          </mxGeometry>
        </mxCell>
        <mxCell id="lStGsnQYNJAQbXHhrpzu-25" value="" style="endArrow=classic;html=1;rounded=0;exitX=0.75;exitY=0;exitDx=0;exitDy=0;entryX=0.75;entryY=1;entryDx=0;entryDy=0;" edge="1" parent="1" source="lStGsnQYNJAQbXHhrpzu-18" target="lStGsnQYNJAQbXHhrpzu-10">
          <mxGeometry width="50" height="50" relative="1" as="geometry">
            <mxPoint x="470" y="170" as="sourcePoint" />
            <mxPoint x="520" y="120" as="targetPoint" />
          </mxGeometry>
        </mxCell>
        <mxCell id="lStGsnQYNJAQbXHhrpzu-26" value="Response" style="edgeLabel;html=1;align=center;verticalAlign=middle;resizable=0;points=[];labelBackgroundColor=none;fontColor=#FFFFFF;" vertex="1" connectable="0" parent="lStGsnQYNJAQbXHhrpzu-25">
          <mxGeometry x="0.1407" relative="1" as="geometry">
            <mxPoint y="6" as="offset" />
          </mxGeometry>
        </mxCell>
        <mxCell id="lStGsnQYNJAQbXHhrpzu-29" value="&lt;font style=&quot;font-size: 8px;&quot;&gt;Entrypoint Application&lt;/font&gt;" style="rounded=1;whiteSpace=wrap;html=1;" vertex="1" parent="1">
          <mxGeometry x="494.1" y="220" width="80" height="20" as="geometry" />
        </mxCell>
        <mxCell id="lStGsnQYNJAQbXHhrpzu-33" value="" style="endArrow=classic;html=1;rounded=0;entryX=1;entryY=0;entryDx=0;entryDy=0;exitX=0;exitY=1;exitDx=0;exitDy=0;" edge="1" parent="1" source="lStGsnQYNJAQbXHhrpzu-19" target="lStGsnQYNJAQbXHhrpzu-18">
          <mxGeometry width="50" height="50" relative="1" as="geometry">
            <mxPoint x="470" y="170" as="sourcePoint" />
            <mxPoint x="520" y="120" as="targetPoint" />
          </mxGeometry>
        </mxCell>
        <mxCell id="lStGsnQYNJAQbXHhrpzu-34" value="Request" style="edgeLabel;html=1;align=center;verticalAlign=middle;resizable=0;points=[];labelBackgroundColor=none;fontColor=#ffffff;rotation=61;labelBorderColor=none;textShadow=1;" vertex="1" connectable="0" parent="lStGsnQYNJAQbXHhrpzu-33">
          <mxGeometry x="0.0612" y="2" relative="1" as="geometry">
            <mxPoint x="17" y="-18" as="offset" />
          </mxGeometry>
        </mxCell>
        <mxCell id="lStGsnQYNJAQbXHhrpzu-35" value="" style="endArrow=classic;html=1;rounded=0;exitX=1;exitY=1;exitDx=0;exitDy=0;entryX=0.5;entryY=1;entryDx=0;entryDy=0;" edge="1" parent="1" source="lStGsnQYNJAQbXHhrpzu-18" target="lStGsnQYNJAQbXHhrpzu-19">
          <mxGeometry width="50" height="50" relative="1" as="geometry">
            <mxPoint x="470" y="170" as="sourcePoint" />
            <mxPoint x="520" y="120" as="targetPoint" />
          </mxGeometry>
        </mxCell>
        <mxCell id="lStGsnQYNJAQbXHhrpzu-36" value="&lt;font&gt;Response&lt;/font&gt;" style="edgeLabel;html=1;align=center;verticalAlign=middle;resizable=0;points=[];labelBackgroundColor=none;fontColor=#ffffff;rotation=54;fontSize=9;textShadow=1;" vertex="1" connectable="0" parent="lStGsnQYNJAQbXHhrpzu-35">
          <mxGeometry x="-0.2557" relative="1" as="geometry">
            <mxPoint x="-2" y="4" as="offset" />
          </mxGeometry>
        </mxCell>
        <mxCell id="lStGsnQYNJAQbXHhrpzu-37" value="" style="endArrow=none;html=1;rounded=0;exitX=1;exitY=0.5;exitDx=0;exitDy=0;" edge="1" parent="1" source="lStGsnQYNJAQbXHhrpzu-29">
          <mxGeometry width="50" height="50" relative="1" as="geometry">
            <mxPoint x="400" y="170" as="sourcePoint" />
            <mxPoint x="590" y="200" as="targetPoint" />
            <Array as="points">
              <mxPoint x="590" y="230" />
            </Array>
          </mxGeometry>
        </mxCell>
        <mxCell id="lStGsnQYNJAQbXHhrpzu-39" value="&lt;font face=&quot;Times New Roman&quot;&gt;INDONESIA&lt;/font&gt;" style="text;html=1;align=center;verticalAlign=middle;whiteSpace=wrap;rounded=0;" vertex="1" parent="1">
          <mxGeometry x="830" y="240" width="60" height="30" as="geometry" />
        </mxCell>
        <mxCell id="lStGsnQYNJAQbXHhrpzu-40" value="Logging" style="rounded=1;whiteSpace=wrap;html=1;" vertex="1" parent="1">
          <mxGeometry x="215" y="80" width="80" height="20" as="geometry" />
        </mxCell>
        <mxCell id="lStGsnQYNJAQbXHhrpzu-41" value="Remotely" style="text;html=1;align=center;verticalAlign=middle;whiteSpace=wrap;rounded=0;" vertex="1" parent="1">
          <mxGeometry x="310" y="40" width="60" height="30" as="geometry" />
        </mxCell>
        <mxCell id="lStGsnQYNJAQbXHhrpzu-42" value="" style="rounded=0;whiteSpace=wrap;html=1;fillColor=#d3e1f1;" vertex="1" parent="1">
          <mxGeometry x="205" y="270" width="165" height="80" as="geometry" />
        </mxCell>
        <mxCell id="lStGsnQYNJAQbXHhrpzu-43" value="" style="sketch=0;outlineConnect=0;fontColor=#232F3E;gradientColor=none;fillColor=#00188d;strokeColor=none;dashed=0;verticalLabelPosition=bottom;verticalAlign=top;align=center;html=1;fontSize=12;fontStyle=0;aspect=fixed;pointerEvents=1;shape=mxgraph.aws4.user;strokeWidth=4;" vertex="1" parent="1">
          <mxGeometry x="230" y="290" width="30" height="30" as="geometry" />
        </mxCell>
        <mxCell id="lStGsnQYNJAQbXHhrpzu-44" value="Logging" style="rounded=1;whiteSpace=wrap;html=1;" vertex="1" parent="1">
          <mxGeometry x="210" y="320" width="80" height="20" as="geometry" />
        </mxCell>
        <mxCell id="lStGsnQYNJAQbXHhrpzu-45" value="Remotely" style="text;html=1;align=center;verticalAlign=middle;whiteSpace=wrap;rounded=0;" vertex="1" parent="1">
          <mxGeometry x="310" y="270" width="60" height="30" as="geometry" />
        </mxCell>
        <mxCell id="lStGsnQYNJAQbXHhrpzu-46" value="Global Application Network" style="rounded=1;whiteSpace=wrap;html=1;" vertex="1" parent="1">
          <mxGeometry x="280" y="175" width="120" height="35" as="geometry" />
        </mxCell>
        <mxCell id="lStGsnQYNJAQbXHhrpzu-47" value="" style="endArrow=classic;startArrow=classic;html=1;rounded=0;exitX=0.5;exitY=0;exitDx=0;exitDy=0;entryX=0.5;entryY=1;entryDx=0;entryDy=0;" edge="1" parent="1" source="lStGsnQYNJAQbXHhrpzu-42" target="lStGsnQYNJAQbXHhrpzu-46">
          <mxGeometry width="50" height="50" relative="1" as="geometry">
            <mxPoint x="430" y="140" as="sourcePoint" />
            <mxPoint x="480" y="90" as="targetPoint" />
          </mxGeometry>
        </mxCell>
        <mxCell id="lStGsnQYNJAQbXHhrpzu-48" value="" style="endArrow=classic;startArrow=classic;html=1;rounded=0;exitX=0.25;exitY=1;exitDx=0;exitDy=0;entryX=0.5;entryY=0;entryDx=0;entryDy=0;" edge="1" parent="1" source="lStGsnQYNJAQbXHhrpzu-38" target="lStGsnQYNJAQbXHhrpzu-46">
          <mxGeometry width="50" height="50" relative="1" as="geometry">
            <mxPoint x="430" y="140" as="sourcePoint" />
            <mxPoint x="480" y="90" as="targetPoint" />
          </mxGeometry>
        </mxCell>
        <mxCell id="lStGsnQYNJAQbXHhrpzu-49" value="" style="endArrow=classic;startArrow=classic;html=1;rounded=0;exitX=1;exitY=0.5;exitDx=0;exitDy=0;entryX=0;entryY=0.5;entryDx=0;entryDy=0;" edge="1" parent="1" source="lStGsnQYNJAQbXHhrpzu-46" target="lStGsnQYNJAQbXHhrpzu-18">
          <mxGeometry width="50" height="50" relative="1" as="geometry">
            <mxPoint x="430" y="140" as="sourcePoint" />
            <mxPoint x="480" y="90" as="targetPoint" />
          </mxGeometry>
        </mxCell>
        <mxCell id="lStGsnQYNJAQbXHhrpzu-50" value="" style="rounded=0;whiteSpace=wrap;html=1;fillColor=none;" vertex="1" parent="1">
          <mxGeometry x="150" y="10" width="810" height="360" as="geometry" />
        </mxCell>
      </root>
    </mxGraphModel>
  </diagram>
</mxfile>
